<?xml version="1.0" encoding="utf-8"?>
<!-- Generator: Adobe Illustrator 24.0.1, SVG Export Plug-In . SVG Version: 6.00 Build 0)  -->
<svg version="1.1" id="Layer_1" xmlns="http://www.w3.org/2000/svg" xmlns:xlink="http://www.w3.org/1999/xlink" x="0px" y="0px"
	 viewBox="0 0 512 512" style="enable-background:new 0 0 512 512;" xml:space="preserve">
<style type="text/css">
	.st0{fill:#FFFFFF;}
</style>
<path class="st0" d="M504,256C504,120.6,395.6,10.6,260.8,8C120.7,5.4,5.5,120.5,8,260.6c2.2,121.6,91.9,221.8,208.8,240.4
	c0.2,0,0.4-0.1,0.4-0.3V328c0-0.2-0.2-0.3-0.3-0.3h-62.3c-0.2,0-0.3-0.2-0.3-0.3v-71c0-0.2,0.2-0.3,0.3-0.3h62.3
	c0.2,0,0.3-0.2,0.3-0.3v-54.3c0-62.2,37-96.5,93.7-96.5c25.6,0,52.2,4.3,55.2,4.8c0.2,0,0.3,0.2,0.3,0.3v60.4c0,0.2-0.2,0.3-0.3,0.3
	h-30.9c-30.8,0-40.4,19.1-40.4,38.7v46.2c0,0.2,0.2,0.3,0.3,0.3h68c0.2,0,0.4,0.2,0.3,0.4l-10.9,71c0,0.2-0.2,0.3-0.3,0.3h-57.1
	c-0.2,0-0.3,0.2-0.3,0.3v172.6c0,0.2,0.2,0.4,0.4,0.3C413.5,482.2,504,379.6,504,256z"/>
</svg>
